<svg xmlns="http://www.w3.org/2000/svg" viewBox="0 0 156 44" width="156" height="44" role="img"><title>Agro</title><defs><path id="m1" d="M20 0 276 700H398L654 0H538L313 637H360L135 0ZM138 169 169 257H505L536 169Z"/><path id="m33" d="M309 -232Q244 -232 188.0 -210.5Q132 -189 94.0 -145.5Q56 -102 47 -36H156Q168 -82 209.0 -109.5Q250 -137 307 -137Q349 -137 384.0 -119.0Q419 -101 439.5 -65.0Q460 -29 460 26V92Q445 66 420.0 44.0Q395 22 360.0 8.0Q325 -6 280 -6Q210 -6 153.5 28.0Q97 62 64.0 120.5Q31 179 31 252Q31 325 64.0 383.0Q97 441 153.5 474.5Q210 508 281 508Q342 508 388.5 482.0Q435 456 460 418V496H570V30Q570 -54 535.0 -112.5Q500 -171 441.0 -201.5Q382 -232 309 -232ZM301 90Q347 90 382.0 111.0Q417 132 437.5 168.5Q458 205 458 251Q458 299 437.5 335.0Q417 371 382.0 391.5Q347 412 301 412Q255 412 219.5 391.5Q184 371 163.5 335.0Q143 299 143 252Q143 205 163.5 168.5Q184 132 219.5 111.0Q255 90 301 90Z"/><path id="m44" d="M50 0V496H160V419Q178 457 208.0 478.5Q238 500 278 500H347V401H267Q233 401 209.0 382.5Q185 364 172.5 325.0Q160 286 160 226V0Z"/><path id="m41" d="M288 -12Q214 -12 155.0 20.5Q96 53 61.5 112.0Q27 171 27 248Q27 326 61.5 384.5Q96 443 155.5 475.5Q215 508 288 508Q363 508 421.5 475.5Q480 443 514.5 384.5Q549 326 549 248Q549 171 514.5 112.0Q480 53 421.0 20.5Q362 -12 288 -12ZM287 83Q328 83 361.5 101.5Q395 120 415.0 156.5Q435 193 435 248Q435 303 415.0 339.5Q395 376 361.5 394.5Q328 413 289 413Q249 413 215.0 394.5Q181 376 161.0 339.5Q141 303 141 248Q141 193 161.0 156.5Q181 120 214.5 101.5Q248 83 287 83Z"/></defs><g transform="translate(0 10) scale(1)" fill="none" stroke="#F2F3F1" stroke-width="1.5" stroke-linecap="round" stroke-linejoin="round"><path d="M12 21.25v-11M12 13A7.25 7.25 0 0 0 4.75 5.75 7.25 7.25 0 0 0 12 13ZM12 10.25A7.25 7.25 0 0 1 19.25 3 7.25 7.25 0 0 1 12 10.25ZM7.75 21.25h8.5"/></g><g transform="translate(36 28) scale(0.017 -0.017)" fill="#F2F3F1"><use href="#m1" x="0"/><use href="#m33" x="642"/><use href="#m44" x="1252"/><use href="#m41" x="1573"/></g></svg>